<svg width="21" height="21" viewBox="0 0 21 21" fill="none" xmlns="http://www.w3.org/2000/svg">
<path d="M14.5285 9.66697C15.0614 8.7588 15.2916 7.70462 15.1856 6.65697C15.029 5.09597 14.1575 3.7161 12.733 2.77197L11.7661 4.22972C12.7453 4.87897 13.3411 5.80385 13.4444 6.83197C13.492 7.30981 13.4325 7.79225 13.2702 8.24421C13.108 8.69616 12.847 9.10628 12.5064 9.44472L11.4634 10.4877L12.8791 10.9033C16.5821 11.9883 16.625 15.7123 16.625 15.75H18.375C18.375 14.1846 17.5385 11.1256 14.5285 9.66697Z" fill="black"/>
<path d="M8.3125 10.5C10.2428 10.5 11.8125 8.93025 11.8125 7C11.8125 5.06975 10.2428 3.5 8.3125 3.5C6.38225 3.5 4.8125 5.06975 4.8125 7C4.8125 8.93025 6.38225 10.5 8.3125 10.5ZM8.3125 5.25C9.27763 5.25 10.0625 6.03487 10.0625 7C10.0625 7.96513 9.27763 8.75 8.3125 8.75C7.34737 8.75 6.5625 7.96513 6.5625 7C6.5625 6.03487 7.34737 5.25 8.3125 5.25ZM9.625 11.375H7C4.10462 11.375 1.75 13.7296 1.75 16.625V17.5H3.5V16.625C3.5 14.6947 5.06975 13.125 7 13.125H9.625C11.5553 13.125 13.125 14.6947 13.125 16.625V17.5H14.875V16.625C14.875 13.7296 12.5204 11.375 9.625 11.375Z" fill="black"/>
</svg>
