<svg width="22" height="22" viewBox="0 0 22 22" fill="none" xmlns="http://www.w3.org/2000/svg">
<path d="M2.74997 11.9168H3.66663V18.3334C3.66663 19.3445 4.48888 20.1668 5.49997 20.1668H16.5C17.5111 20.1668 18.3333 19.3445 18.3333 18.3334V11.9168H19.25C19.4312 11.9167 19.6084 11.8629 19.7591 11.7622C19.9098 11.6615 20.0273 11.5183 20.0967 11.3509C20.166 11.1834 20.1842 10.9991 20.1488 10.8213C20.1135 10.6435 20.0262 10.4802 19.8981 10.352L11.6481 2.10202C11.563 2.01682 11.462 1.94923 11.3508 1.90311C11.2396 1.85699 11.1204 1.83325 11 1.83325C10.8796 1.83325 10.7604 1.85699 10.6492 1.90311C10.538 1.94923 10.4369 2.01682 10.3519 2.10202L2.10188 10.352C1.97373 10.4802 1.88645 10.6435 1.8511 10.8213C1.81575 10.9991 1.8339 11.1834 1.90326 11.3509C1.97263 11.5183 2.09009 11.6615 2.2408 11.7622C2.39151 11.8629 2.5687 11.9167 2.74997 11.9168ZM9.16663 18.3334V13.7501H12.8333V18.3334H9.16663ZM11 4.04627L16.5 9.54627V13.7501L16.5009 18.3334H14.6666V13.7501C14.6666 12.739 13.8444 11.9168 12.8333 11.9168H9.16663C8.15555 11.9168 7.3333 12.739 7.3333 13.7501V18.3334H5.49997V9.54627L11 4.04627Z" fill="black"/>
</svg>
