<svg xmlns="http://www.w3.org/2000/svg" width="43" height="43" viewBox="0 0 43 43">
    <g fill="#000" fill-rule="nonzero" opacity=".681">
        <path d="M39.544 8.236a4.797 4.797 0 0 0 1.397-3.379C40.941 2.18 38.725 0 36 0c-2.725 0-4.941 2.179-4.941 4.857 0 1.313.533 2.504 1.397 3.38C30.39 9.433 29 11.643 29 14.166v1.619c0 .67.553 1.214 1.235 1.214h11.53c.682 0 1.235-.544 1.235-1.214v-1.62c0-2.523-1.39-4.732-3.456-5.93zM33.53 4.857c0-1.339 1.109-2.428 2.471-2.428s2.47 1.089 2.47 2.428c0 1.34-1.108 2.429-2.47 2.429s-2.47-1.09-2.47-2.429zm7 9.714h-9.058v-.404c0-2.455 2.031-4.453 4.529-4.453 2.498 0 4.53 1.998 4.53 4.453v.404zM25.544 22.236a4.797 4.797 0 0 0 1.397-3.379C26.941 16.18 24.725 14 22 14c-2.725 0-4.941 2.179-4.941 4.857 0 1.313.533 2.504 1.397 3.38C16.39 23.433 15 25.642 15 28.166v1.619c0 .67.553 1.214 1.235 1.214h11.53c.682 0 1.235-.544 1.235-1.214v-1.62c0-2.523-1.39-4.732-3.456-5.93zm-6.015-3.379c0-1.339 1.109-2.428 2.471-2.428s2.47 1.089 2.47 2.428c0 1.34-1.108 2.429-2.47 2.429s-2.47-1.09-2.47-2.429zm7 9.714h-9.058v-.404c0-2.455 2.031-4.453 4.529-4.453 2.498 0 4.53 1.998 4.53 4.453v.404zM10.544 8.236a4.797 4.797 0 0 0 1.397-3.379C11.941 2.18 9.725 0 7 0 4.275 0 2.059 2.179 2.059 4.857c0 1.313.533 2.504 1.397 3.38C1.39 9.433 0 11.643 0 14.166v1.619C0 16.456.553 17 1.235 17h11.53c.682 0 1.235-.544 1.235-1.214v-1.62c0-2.523-1.39-4.732-3.456-5.93zM4.53 4.857C4.53 3.518 5.638 2.43 7 2.43s2.47 1.089 2.47 2.428c0 1.34-1.108 2.429-2.47 2.429s-2.47-1.09-2.47-2.429zm7 9.714H2.471v-.404c0-2.455 2.031-4.453 4.529-4.453 2.498 0 4.53 1.998 4.53 4.453v.404zM24.8 34.395l-5.105 5.346-1.494-1.566a1.248 1.248 0 0 0-1.823 0 1.395 1.395 0 0 0 0 1.91l2.406 2.52c.252.263.581.395.911.395.33 0 .66-.132.912-.395l6.015-6.3a1.395 1.395 0 0 0 0-1.91 1.248 1.248 0 0 0-1.822 0zM11.605 22.396a1.35 1.35 0 0 0-1.91 0L7.5 24.59l-2.195-2.196a1.35 1.35 0 1 0-1.91 1.91L5.591 26.5l-2.196 2.195a1.35 1.35 0 1 0 1.91 1.91L7.5 28.409l2.195 2.196c.264.263.61.395.955.395a1.35 1.35 0 0 0 .955-2.305L9.409 26.5l2.196-2.195a1.35 1.35 0 0 0 0-1.91zM39.605 22.396a1.35 1.35 0 0 0-1.91 0L35.5 24.59l-2.195-2.196a1.35 1.35 0 1 0-1.91 1.91l2.196 2.195-2.196 2.195a1.35 1.35 0 1 0 1.91 1.91l2.195-2.196 2.195 2.196c.264.263.61.395.955.395s.691-.132.955-.395a1.35 1.35 0 0 0 0-1.91L37.409 26.5l2.196-2.195a1.35 1.35 0 0 0 0-1.91z"/>
    </g>
</svg>
