<svg width="19" height="19" viewBox="0 0 19 19" fill="none" xmlns="http://www.w3.org/2000/svg">
<path fill-rule="evenodd" clip-rule="evenodd" d="M8.28544 16.1763C12.8614 16.1763 16.5709 12.5551 16.5709 8.08817C16.5709 3.6212 12.8614 0 8.28544 0C3.70952 0 0 3.6212 0 8.08817C0 12.5551 3.70952 16.1763 8.28544 16.1763Z" fill="black"/>
<path fill-rule="evenodd" clip-rule="evenodd" d="M8.28533 13.4144C11.118 13.4144 13.4144 11.118 13.4144 8.28533C13.4144 5.45262 11.118 3.15625 8.28533 3.15625C5.45262 3.15625 3.15625 5.45262 3.15625 8.28533C3.15625 11.118 5.45262 13.4144 8.28533 13.4144Z" fill="white"/>
<path fill-rule="evenodd" clip-rule="evenodd" d="M11.8672 13.6819L14.0974 11.4763L18.9297 16.2551L16.6994 18.4607L11.8672 13.6819Z" fill="black"/>
</svg>
