<svg width="19" height="19" viewBox="0 0 19 19" fill="none" xmlns="http://www.w3.org/2000/svg">
<path d="M6.45396 14.5215L7.31639 11.008L4.57178 8.72802L8.15061 8.44153L9.4999 5.14771L10.8492 8.44153L14.428 8.72802L11.6834 11.008L12.5458 14.5215L9.4999 12.5948L6.45396 14.5215Z" fill="#FCC21B"/>
<path d="M1.58234 4.21296C2.00539 4.45937 2.4225 4.71617 2.85148 4.95515C3.43929 5.28468 4.03304 5.62906 4.655 5.88585C4.8732 5.9764 5.04836 5.81906 5.13593 5.63351C5.23093 5.43015 5.11961 5.2921 5.02609 5.11249C4.78265 4.64788 4.54961 4.17734 4.27054 3.73351C3.98851 3.28226 3.77179 2.78648 3.43929 2.36788L3.40961 2.33226C3.24484 2.12445 3.04 1.84093 2.74609 1.86468C2.46109 1.88843 2.28445 2.12742 2.08109 2.30257C1.7382 2.59648 1.46804 2.97945 1.24242 3.36687C1.14742 3.53163 1.04054 3.75281 1.17117 3.9339C1.26617 4.06156 1.44875 4.13578 1.58234 4.21296Z" fill="#F79329"/>
<path d="M3.56397 13.1532C3.08897 13.2631 2.60952 13.3625 2.14194 13.511C1.67139 13.6594 1.17264 13.7381 0.715456 13.9399L0.678346 13.9578C0.451237 14.0572 0.14694 14.176 0.100924 14.4461C0.0549088 14.7103 0.230065 14.9241 0.339909 15.1482C0.523971 15.5267 0.806002 15.8607 1.10288 16.1546C1.23053 16.2808 1.40421 16.4278 1.59717 16.3506C1.73671 16.2971 1.84655 16.1472 1.94452 16.0463C2.26663 15.7227 2.59764 15.405 2.91233 15.0755C3.34874 14.6228 3.79702 14.1685 4.17553 13.6683C4.30764 13.4917 4.20819 13.2972 4.05975 13.1755C3.89944 13.0434 3.74803 13.1117 3.56397 13.1532Z" fill="#F79329"/>
<path d="M14.345 5.88563C14.9669 5.62735 15.5592 5.28297 16.1485 4.95493C16.576 4.71594 16.9946 4.45914 17.4191 4.21274C17.5512 4.13555 17.7353 4.06133 17.8288 3.93219C17.9609 3.7511 17.854 3.53141 17.7575 3.36516C17.5334 2.97774 17.2618 2.59477 16.9189 2.30086C16.7155 2.12571 16.5403 1.88672 16.2539 1.86297C15.9614 1.83922 15.7551 2.12274 15.5903 2.33055L15.5607 2.36618C15.2267 2.78625 15.0114 3.28055 14.7279 3.7318C14.4503 4.17711 14.2158 4.64618 13.9724 5.11079C13.8789 5.29188 13.7675 5.42993 13.8625 5.6318C13.9501 5.81883 14.1268 5.97618 14.345 5.88563Z" fill="#F79329"/>
<path d="M18.3231 13.9592L18.2845 13.9414C17.8288 13.738 17.3301 13.6608 16.8581 13.5124C16.3905 13.364 15.9125 13.2645 15.436 13.1547C15.2505 13.1131 15.0991 13.0448 14.9388 13.1784C14.7918 13.3001 14.6909 13.4946 14.823 13.6712C15.2015 14.1715 15.6527 14.6257 16.0862 15.0784C16.4024 15.408 16.7319 15.7256 17.054 16.0492C17.1534 16.1516 17.2633 16.3001 17.4028 16.3535C17.5958 16.4307 17.7695 16.2823 17.8971 16.1576C18.194 15.8637 18.4775 15.5297 18.6616 15.1512C18.7714 14.9255 18.9451 14.7118 18.9006 14.449C18.8531 14.1774 18.5502 14.0587 18.3231 13.9592Z" fill="#F79329"/>
<path d="M13.2792 11.5336L17.2633 8.22497C17.3909 8.11958 17.4414 7.94739 17.3909 7.79005C17.3663 7.7131 17.3195 7.64515 17.2563 7.59471C17.1932 7.54427 17.1166 7.51359 17.0361 7.50653L11.8364 7.09239L9.877 2.30825C9.8461 2.23366 9.79381 2.16989 9.72671 2.12498C9.65961 2.08007 9.58071 2.05604 9.49997 2.05591C9.33521 2.05591 9.18528 2.15536 9.12294 2.30825L7.16357 7.09239L1.9638 7.50653C1.79755 7.51989 1.6595 7.63122 1.60904 7.79005C1.55857 7.94888 1.60904 8.11958 1.73669 8.22497L5.72224 11.5336L4.46943 16.6354C4.43083 16.7958 4.49318 16.965 4.62677 17.0629C4.76185 17.1594 4.94294 17.1654 5.08247 17.0763L9.49997 14.2797L13.9175 17.0748C14.057 17.1624 14.2381 17.1579 14.3732 17.0615C14.5068 16.965 14.5706 16.7958 14.5305 16.634L13.2792 11.5336ZM6.45404 14.5217L7.31794 11.0082L4.57185 8.72817L8.15068 8.44169L9.49997 5.14786L10.8493 8.44169L14.4281 8.72817L11.6835 11.0082L12.5459 14.5217L9.49997 12.595L6.45404 14.5217Z" fill="#F79329"/>
</svg>
