<svg xmlns="http://www.w3.org/2000/svg" width="49" height="43" viewBox="0 0 49 43">
    <g fill="#000" fill-rule="nonzero" opacity=".792">
        <path d="M48.183 28.396a.814.814 0 0 0 .817-.811v-6.49a.814.814 0 0 0-.817-.812H37.905l5.139-5.106a.808.808 0 0 0 0-1.147l-4.462-4.433a.82.82 0 0 0-1.155 0 3.283 3.283 0 0 1-4.62 0 3.231 3.231 0 0 1 0-4.59.808.808 0 0 0 0-1.148L29.16.238a.82.82 0 0 0-1.155 0L7.829 20.283H.817a.814.814 0 0 0-.817.811v6.49c0 .449.366.812.817.812 1.804 0 3.266 1.453 3.266 3.245 0 1.793-1.462 3.246-3.266 3.246a.814.814 0 0 0-.817.811v6.49c0 .449.366.812.817.812h47.366a.814.814 0 0 0 .817-.811v-6.49a.814.814 0 0 0-.817-.812c-1.804 0-3.266-1.453-3.266-3.246 0-1.792 1.462-3.245 3.266-3.245zm-19.6-26.438l2.539 2.522a4.848 4.848 0 0 0 1.138 6.79 4.926 4.926 0 0 0 5.697 0l3.355 3.334-5.717 5.679h-2.59l1.872-1.86a.808.808 0 0 0 0-1.148l-8.983-8.924a.82.82 0 0 0-1.155 0L12.73 20.283h-2.59L28.582 1.958zm2.112 18.325H15.038l10.279-10.211 7.828 7.777-2.45 2.434zm12.652 12.165a4.884 4.884 0 0 0 4.02 3.994v4.935h-6.534v-3.245H39.2v3.245H9.8v-.811H8.167v.811H1.633v-4.935c2.67-.446 4.469-2.956 4.02-5.607a4.884 4.884 0 0 0-4.02-3.994v-4.935h6.534v2.434H9.8v-2.434h37.567v4.935c-2.67.445-4.469 2.956-4.02 5.607z"/>
        <path d="M39 24h2v3h-2zM39 29h2v3h-2zM39 33h2v3h-2zM8 26h2v3H8zM8 31h2v3H8zM8 36h2v3H8zM36.167 26.4c-.92 0-1.667-.716-1.667-1.6 0-.442-.373-.8-.833-.8H15.333c-.46 0-.833.358-.833.8 0 .884-.746 1.6-1.667 1.6-.46 0-.833.358-.833.8v9.6c0 .442.373.8.833.8.92 0 1.667.716 1.667 1.6 0 .442.373.8.833.8h18.334c.46 0 .833-.358.833-.8 0-.884.746-1.6 1.667-1.6.46 0 .833-.358.833-.8v-9.6c0-.442-.373-.8-.833-.8zm-.834 9.7c-1.173.294-2.089 1.174-2.395 2.3H16.062c-.306-1.126-1.222-2.006-2.395-2.3v-8.2c1.173-.294 2.089-1.174 2.395-2.3h16.876c.306 1.126 1.222 2.006 2.395 2.3v8.2z"/>
    </g>
</svg>
