<svg width="18" height="16" viewBox="0 0 18 16" fill="none" xmlns="http://www.w3.org/2000/svg">
<path fill-rule="evenodd" clip-rule="evenodd" d="M0.428558 1.54048C0.428558 1.2835 0.525315 1.03704 0.697542 0.85533C0.869769 0.673618 1.10336 0.571533 1.34693 0.571533H16.653C16.7736 0.571533 16.8931 0.596596 17.0045 0.64529C17.1159 0.693984 17.2172 0.765355 17.3024 0.85533C17.3877 0.945305 17.4554 1.05212 17.5015 1.16968C17.5477 1.28724 17.5714 1.41323 17.5714 1.54048C17.5714 1.66772 17.5477 1.79372 17.5015 1.91128C17.4554 2.02883 17.3877 2.13565 17.3024 2.22562C17.2172 2.3156 17.1159 2.38697 17.0045 2.43567C16.8931 2.48436 16.7736 2.50942 16.653 2.50942H1.34693C1.10336 2.50942 0.869769 2.40734 0.697542 2.22562C0.525315 2.04391 0.428558 1.79746 0.428558 1.54048ZM0.428558 8.0001C0.428558 7.74312 0.525315 7.49667 0.697542 7.31496C0.869769 7.13325 1.10336 7.03116 1.34693 7.03116H16.653C16.8966 7.03116 17.1302 7.13325 17.3024 7.31496C17.4747 7.49667 17.5714 7.74312 17.5714 8.0001C17.5714 8.25708 17.4747 8.50354 17.3024 8.68525C17.1302 8.86696 16.8966 8.96905 16.653 8.96905H1.34693C1.10336 8.96905 0.869769 8.86696 0.697542 8.68525C0.525315 8.50354 0.428558 8.25708 0.428558 8.0001ZM1.34693 13.4908C1.10336 13.4908 0.869769 13.5929 0.697542 13.7746C0.525315 13.9563 0.428558 14.2028 0.428558 14.4597C0.428558 14.7167 0.525315 14.9632 0.697542 15.1449C0.869769 15.3266 1.10336 15.4287 1.34693 15.4287H16.653C16.8966 15.4287 17.1302 15.3266 17.3024 15.1449C17.4747 14.9632 17.5714 14.7167 17.5714 14.4597C17.5714 14.2028 17.4747 13.9563 17.3024 13.7746C17.1302 13.5929 16.8966 13.4908 16.653 13.4908H1.34693Z" fill="black"/>
</svg>
