<svg width="20" height="19" viewBox="0 0 20 19" fill="none" xmlns="http://www.w3.org/2000/svg">
<path fill-rule="evenodd" clip-rule="evenodd" d="M8.82059 16.6766C13.3965 16.6766 17.106 13.0554 17.106 8.58841C17.106 4.12144 13.3965 0.500244 8.82059 0.500244C4.24467 0.500244 0.535156 4.12144 0.535156 8.58841C0.535156 13.0554 4.24467 16.6766 8.82059 16.6766Z" fill="black"/>
<path fill-rule="evenodd" clip-rule="evenodd" d="M8.82049 13.9147C11.6532 13.9147 13.9496 11.6183 13.9496 8.78558C13.9496 5.95286 11.6532 3.65649 8.82049 3.65649C5.98777 3.65649 3.69141 5.95286 3.69141 8.78558C3.69141 11.6183 5.98777 13.9147 8.82049 13.9147Z" fill="white"/>
<path fill-rule="evenodd" clip-rule="evenodd" d="M12.4023 14.1821L14.6326 11.9765L19.4648 16.7554L17.2346 18.961L12.4023 14.1821Z" fill="black"/>
</svg>
