<svg width="20" height="20" viewBox="0 0 20 20" fill="none" xmlns="http://www.w3.org/2000/svg">
<path d="M16.875 10.4751V10.0001V9.51888L18.075 8.46888C18.2962 8.27391 18.4414 8.00702 18.4849 7.71538C18.5283 7.42374 18.4673 7.12612 18.3125 6.87513L16.8375 4.37513C16.7279 4.1853 16.5703 4.02762 16.3806 3.91792C16.1908 3.80822 15.9755 3.75036 15.7563 3.75013C15.6204 3.74909 15.4853 3.7702 15.3563 3.81263L13.8375 4.32513C13.5753 4.15089 13.3018 3.99429 13.0188 3.85638L12.7 2.28138C12.6429 1.99364 12.4863 1.73516 12.2578 1.5512C12.0293 1.36723 11.7433 1.26951 11.45 1.27513H8.52504C8.23172 1.26951 7.94577 1.36723 7.71725 1.5512C7.48873 1.73516 7.33219 1.99364 7.27504 2.28138L6.95629 3.85638C6.67124 3.99426 6.39564 4.15085 6.13129 4.32513L4.64379 3.78763C4.51335 3.75365 4.37827 3.74098 4.24379 3.75013C4.02458 3.75036 3.80929 3.80822 3.61951 3.91792C3.42973 4.02762 3.27214 4.1853 3.16254 4.37513L1.68754 6.87513C1.54165 7.12575 1.48744 7.41929 1.53419 7.70548C1.58094 7.99168 1.72574 8.25271 1.94379 8.44388L3.12504 9.52513V10.4814L1.94379 11.5314C1.71958 11.7239 1.57082 11.9896 1.52391 12.2813C1.477 12.5731 1.53497 12.8721 1.68754 13.1251L3.16254 15.6251C3.27214 15.815 3.42973 15.9726 3.61951 16.0823C3.80929 16.192 4.02458 16.2499 4.24379 16.2501C4.37963 16.2512 4.51473 16.2301 4.64379 16.1876L6.16254 15.6751C6.42475 15.8494 6.69827 16.006 6.98129 16.1439L7.30004 17.7189C7.35719 18.0066 7.51373 18.2651 7.74225 18.4491C7.97077 18.633 8.25672 18.7308 8.55004 18.7251H11.5C11.7933 18.7308 12.0793 18.633 12.3078 18.4491C12.5363 18.2651 12.6929 18.0066 12.75 17.7189L13.0688 16.1439C13.3538 16.006 13.6294 15.8494 13.8938 15.6751L15.4063 16.1876C15.5353 16.2301 15.6704 16.2512 15.8063 16.2501C16.0255 16.2499 16.2408 16.192 16.4306 16.0823C16.6203 15.9726 16.7779 15.815 16.8875 15.6251L18.3125 13.1251C18.4584 12.8745 18.5126 12.581 18.4659 12.2948C18.4191 12.0086 18.2743 11.7476 18.0563 11.5564L16.875 10.4751ZM15.7563 15.0001L13.6125 14.2751C13.1107 14.7002 12.5372 15.0325 11.9188 15.2564L11.475 17.5001H8.52504L8.08129 15.2814C7.4678 15.0511 6.89736 14.7194 6.39378 14.3001L4.24379 15.0001L2.76879 12.5001L4.46879 11.0001C4.35322 10.3532 4.35322 9.69085 4.46879 9.04388L2.76879 7.50013L4.24379 5.00013L6.38754 5.72513C6.88937 5.30006 7.46291 4.96779 8.08129 4.74388L8.52504 2.50013H11.475L11.9188 4.71888C12.5323 4.94915 13.1027 5.28085 13.6063 5.70013L15.7563 5.00013L17.2313 7.50013L15.5313 9.00013C15.6468 9.64709 15.6468 10.3094 15.5313 10.9564L17.2313 12.5001L15.7563 15.0001Z" fill="black"/>
<path d="M10 13.75C9.25832 13.75 8.5333 13.5301 7.91661 13.118C7.29993 12.706 6.81928 12.1203 6.53545 11.4351C6.25162 10.7498 6.17736 9.99584 6.32206 9.26841C6.46675 8.54098 6.8239 7.8728 7.34835 7.34835C7.8728 6.8239 8.54098 6.46675 9.26841 6.32206C9.99584 6.17736 10.7498 6.25162 11.4351 6.53545C12.1203 6.81928 12.706 7.29993 13.118 7.91661C13.5301 8.5333 13.75 9.25832 13.75 10C13.755 10.4939 13.6614 10.9837 13.4748 11.441C13.2881 11.8982 13.012 12.3136 12.6628 12.6628C12.3136 13.012 11.8982 13.2881 11.441 13.4748C10.9837 13.6614 10.4939 13.755 10 13.75ZM10 7.5C9.66959 7.4923 9.34105 7.55171 9.03426 7.67462C8.72747 7.79753 8.44879 7.9814 8.2151 8.2151C7.9814 8.44879 7.79753 8.72747 7.67462 9.03426C7.55171 9.34105 7.4923 9.66959 7.5 10C7.4923 10.3304 7.55171 10.6589 7.67462 10.9657C7.79753 11.2725 7.9814 11.5512 8.2151 11.7849C8.44879 12.0186 8.72747 12.2025 9.03426 12.3254C9.34105 12.4483 9.66959 12.5077 10 12.5C10.3304 12.5077 10.6589 12.4483 10.9657 12.3254C11.2725 12.2025 11.5512 12.0186 11.7849 11.7849C12.0186 11.5512 12.2025 11.2725 12.3254 10.9657C12.4483 10.6589 12.5077 10.3304 12.5 10C12.5077 9.66959 12.4483 9.34105 12.3254 9.03426C12.2025 8.72747 12.0186 8.44879 11.7849 8.2151C11.5512 7.9814 11.2725 7.79753 10.9657 7.67462C10.6589 7.55171 10.3304 7.4923 10 7.5Z" fill="black"/>
</svg>
