<?xml version="1.0" encoding="utf-8"?>
<!-- Generator: Adobe Illustrator 16.0.0, SVG Export Plug-In . SVG Version: 6.00 Build 0)  -->
<!DOCTYPE svg PUBLIC "-//W3C//DTD SVG 1.1//EN" "http://www.w3.org/Graphics/SVG/1.1/DTD/svg11.dtd">
<svg version="1.1" id="Layer_1" xmlns="http://www.w3.org/2000/svg" xmlns:xlink="http://www.w3.org/1999/xlink" x="0px" y="0px"
	 width="894.667px" height="264.667px" viewBox="0 0 894.667 264.667" enable-background="new 0 0 894.667 264.667"
	 xml:space="preserve">
<g>
	<path d="M3.427,261.332V3.52h103.125v50.244h-51.27v41.016h48.633v49.658H55.282v116.895H3.427z"/>
	<path d="M123.104,261.332V3.52h51.563v213.867h53.027v43.945H123.104z"/>
	<path d="M235.312,261.332L260.214,3.52h87.451l24.464,257.813h-48.78l-3.662-41.602h-31.055l-3.223,41.602H235.312z
		 M292.294,178.568h23.438L304.452,47.465h-2.344L292.294,178.568z"/>
	<path d="M406.26,261.332V53.031h-30.615V3.52h112.793v49.512h-30.615v208.301H406.26z"/>
	<path d="M524.912,261.332V53.031h-30.615V3.52H607.09v49.512h-30.615v208.301H524.912z"/>
	<path d="M682.969,263.676c-20.606,0-36.354-6.226-47.241-18.677c-10.891-12.451-16.333-30.443-16.333-53.979V68.559
		c0-22.069,5.395-38.818,16.187-50.244C646.37,6.889,662.168,1.176,682.969,1.176s36.596,5.713,47.388,17.139
		c10.789,11.426,16.187,28.175,16.187,50.244V191.02c0,23.536-5.445,41.528-16.333,53.979
		C719.319,257.45,703.572,263.676,682.969,263.676z M683.408,216.215c7.812,0,11.719-7.567,11.719-22.705V67.68
		c0-12.694-3.809-19.043-11.426-19.043c-8.595,0-12.891,6.496-12.891,19.482v125.684c0,8.009,0.975,13.747,2.93,17.212
		C675.692,214.482,678.915,216.215,683.408,216.215z"/>
	<path d="M767.344,261.332V3.52h68.115c14.257,0,25.562,3.175,33.911,9.521c8.35,6.349,14.33,15.381,17.944,27.1
		c3.611,11.719,5.42,25.685,5.42,41.895c0,15.626-1.516,29.224-4.541,40.796c-3.028,11.572-8.423,20.533-16.187,26.88
		c-7.764,6.349-18.775,9.521-33.032,9.521h-20.947v102.1H767.344z M818.027,112.943h2.93c9.569,0,15.429-2.685,17.578-8.057
		c2.146-5.37,3.223-13.28,3.223-23.73c0-9.764-1.051-17.308-3.149-22.632c-2.102-5.321-7.057-7.983-14.868-7.983h-5.713V112.943z"/>
</g>
<g>
</g>
<g>
</g>
<g>
</g>
<g>
</g>
<g>
</g>
<g>
</g>
<g>
</g>
<g>
</g>
<g>
</g>
<g>
</g>
<g>
</g>
<g>
</g>
<g>
</g>
<g>
</g>
<g>
</g>
</svg>
