<svg width="122" height="37" viewBox="0 0 122 37" fill="none" xmlns="http://www.w3.org/2000/svg">
<rect x="0.5" y="0.5" width="121" height="36" rx="16.5" fill="white"/>
<path d="M34.8889 13.73L40 18.518L34.8889 23.27V20.084H27.2407V16.916H34.8889V13.73ZM31.8148 22.946L33.7778 24.872C31.8519 26.624 29.7654 27.5 27.5185 27.5C24.8395 27.5 22.5833 26.639 20.75 24.917C18.9167 23.195 18 21.044 18 18.464C18 16.844 18.4198 15.344 19.2593 13.964C20.0988 12.584 21.2315 11.495 22.6574 10.697C24.0833 9.899 25.6296 9.5 27.2963 9.5C29.5679 9.5 31.7222 10.388 33.7593 12.164L31.8148 14.072C30.4074 12.824 28.9074 12.2 27.3148 12.2C25.4753 12.2 23.9228 12.824 22.6574 14.072C21.392 15.32 20.7593 16.844 20.7593 18.644C20.7593 20.324 21.4105 21.77 22.713 22.982C24.0154 24.194 25.5432 24.8 27.2963 24.8C28.9136 24.8 30.4198 24.182 31.8148 22.946Z" fill="black"/>
<path d="M62.144 18.776V17.272H53.984V15.544H61.728V10.92H52.048V12.408H59.872V14.056H52.128V18.776H55.952V21H50.48V22.488H63.36V21H57.824V18.776H62.144ZM76.7238 22.248V20.776H63.8438V22.248H76.7238ZM75.0918 11.464H65.3158V12.936H73.2198C73.2358 15.288 72.9318 18.328 72.6118 19.752L74.4358 19.928C74.7718 18.152 75.0918 15.512 75.0918 11.464ZM88.3595 10.008H86.4555V24.264H88.3595V17.032H90.4715V15.48H88.3595V10.008ZM77.3195 16.088C77.3195 19.08 78.6955 21.16 81.0155 21.16C83.3515 21.16 84.7115 19.064 84.7115 16.088C84.7115 13.08 83.3515 10.984 81.0155 10.984C78.6955 10.984 77.3195 13.08 77.3195 16.088ZM82.9195 16.088C82.9195 18.328 82.1195 19.656 81.0155 19.656C79.9435 19.656 79.1435 18.328 79.1435 16.088C79.1435 13.832 79.9435 12.488 81.0155 12.488C82.1195 12.488 82.9195 13.832 82.9195 16.088ZM101.995 12.984C101.995 11.368 100.171 10.28 97.0033 10.28C93.8513 10.28 92.0273 11.368 92.0273 12.984C92.0273 14.584 93.8513 15.704 97.0033 15.704C100.171 15.704 101.995 14.584 101.995 12.984ZM97.9153 19.208V17.8H103.451V16.296H90.5713V17.8H96.0433V19.208H97.9153ZM102.523 22.92C100.203 22.6 97.9473 21.576 97.9473 19.816V19.72H96.0433V19.816C96.0433 21.592 93.9473 22.632 91.4193 22.872C91.7073 23.368 91.9793 23.88 92.2833 24.376C94.3153 24.152 96.3953 23.064 96.9873 21.832C97.6753 23 99.8193 24.168 101.675 24.392C101.963 23.896 102.251 23.416 102.523 22.92ZM100.059 12.984C100.059 13.752 98.8753 14.296 97.0033 14.296C95.0673 14.296 93.9633 13.752 93.9633 12.984C93.9633 12.216 95.0673 11.688 97.0033 11.688C98.9553 11.688 100.059 12.216 100.059 12.984Z" fill="black"/>
<rect x="0.5" y="0.5" width="121" height="36" rx="16.5" stroke="#212121"/>
</svg>
